REM DIRINDEX 1\2,1\3,1\4,1\5,1\6,1\7,1\8
REM DIRNAME folder01,folder02,folder03,folder04,folder05,folder06,folder07,folder08
TITLE ""
FILE "12_Ch3_Working_Behavier.mp3" MP3
  TRACK 01 AUDIO
    TITLE "0:"
    INDEX 01 00:00:00
  TRACK 02 AUDIO
    TITLE "8:cjc152_0567"
    INDEX 01 00:00:29
  TRACK 03 AUDIO
    TITLE "0:"
    INDEX 01 00:03:12
  TRACK 04 AUDIO
    TITLE "8:cjc152_0568"
    INDEX 01 00:03:70
  TRACK 05 AUDIO
    TITLE "0:"
    INDEX 01 00:05:36
  TRACK 06 AUDIO
    TITLE "3:cjc152_0569"
    INDEX 01 00:06:28
  TRACK 07 AUDIO
    TITLE "0:"
    INDEX 01 00:09:61
  TRACK 08 AUDIO
    TITLE "3:cjc152_0570"
    INDEX 01 00:10:53
  TRACK 09 AUDIO
    TITLE "0:"
    INDEX 01 00:14:02
  TRACK 10 AUDIO
    TITLE "3:cjc152_0571"
    INDEX 01 00:15:70
  TRACK 11 AUDIO
    TITLE "0:"
    INDEX 01 00:17:23
  TRACK 12 AUDIO
    TITLE "3:cjc152_0572"
    INDEX 01 00:18:17
  TRACK 13 AUDIO
    TITLE "0:"
    INDEX 01 00:19:65
  TRACK 14 AUDIO
    TITLE "3:cjc152_0573"
    INDEX 01 00:21:49
  TRACK 15 AUDIO
    TITLE "0:"
    INDEX 01 00:23:40
  TRACK 16 AUDIO
    TITLE "3:cjc152_0574"
    INDEX 01 00:24:33
  TRACK 17 AUDIO
    TITLE "0:"
    INDEX 01 00:26:40
  TRACK 18 AUDIO
    TITLE "3:cjc152_0575"
    INDEX 01 00:28:23
  TRACK 19 AUDIO
    TITLE "0:"
    INDEX 01 00:30:01
  TRACK 20 AUDIO
    TITLE "3:cjc152_0576"
    INDEX 01 00:30:69
  TRACK 21 AUDIO
    TITLE "0:"
    INDEX 01 00:32:66
  TRACK 22 AUDIO
    TITLE "3:cjc152_0577"
    INDEX 01 00:34:47
  TRACK 23 AUDIO
    TITLE "0:"
    INDEX 01 00:37:08
  TRACK 24 AUDIO
    TITLE "3:cjc152_0578"
    INDEX 01 00:38:16
  TRACK 25 AUDIO
    TITLE "0:"
    INDEX 01 00:42:12
  TRACK 26 AUDIO
    TITLE "3:cjc152_0579"
    INDEX 01 00:43:70
  TRACK 27 AUDIO
    TITLE "0:"
    INDEX 01 00:46:07
  TRACK 28 AUDIO
    TITLE "3:cjc152_0580"
    INDEX 01 00:47:01
  TRACK 29 AUDIO
    TITLE "0:"
    INDEX 01 00:49:04
  TRACK 30 AUDIO
    TITLE "3:cjc152_0581"
    INDEX 01 00:50:60
  TRACK 31 AUDIO
    TITLE "0:"
    INDEX 01 00:52:69
  TRACK 32 AUDIO
    TITLE "3:cjc152_0582"
    INDEX 01 00:53:62
  TRACK 33 AUDIO
    TITLE "0:"
    INDEX 01 00:56:49
  TRACK 34 AUDIO
    TITLE "3:cjc152_0583"
    INDEX 01 00:58:32
  TRACK 35 AUDIO
    TITLE "0:"
    INDEX 01 01:00:59
  TRACK 36 AUDIO
    TITLE "3:cjc152_0584"
    INDEX 01 01:01:48
  TRACK 37 AUDIO
    TITLE "0:"
    INDEX 01 01:04:07
  TRACK 38 AUDIO
    TITLE "3:cjc152_0585"
    INDEX 01 01:05:68
  TRACK 39 AUDIO
    TITLE "0:"
    INDEX 01 01:08:13
  TRACK 40 AUDIO
    TITLE "3:cjc152_0586"
    INDEX 01 01:09:05
  TRACK 41 AUDIO
    TITLE "0:"
    INDEX 01 01:11:27
  TRACK 42 AUDIO
    TITLE "3:cjc152_0587"
    INDEX 01 01:13:12
  TRACK 43 AUDIO
    TITLE "0:"
    INDEX 01 01:14:74
  TRACK 44 AUDIO
    TITLE "3:cjc152_0588"
    INDEX 01 01:15:66
  TRACK 45 AUDIO
    TITLE "0:"
    INDEX 01 01:17:67
  TRACK 46 AUDIO
    TITLE "3:cjc152_0589"
    INDEX 01 01:19:52
  TRACK 47 AUDIO
    TITLE "0:"
    INDEX 01 01:21:00
  TRACK 48 AUDIO
    TITLE "3:cjc152_0590"
    INDEX 01 01:21:69
  TRACK 49 AUDIO
    TITLE "0:"
    INDEX 01 01:23:44
  TRACK 50 AUDIO
    TITLE "3:cjc152_0591"
    INDEX 01 01:25:25
  TRACK 51 AUDIO
    TITLE "0:"
    INDEX 01 01:27:06
  TRACK 52 AUDIO
    TITLE "3:cjc152_0592"
    INDEX 01 01:28:00
  TRACK 53 AUDIO
    TITLE "0:"
    INDEX 01 01:29:70
  TRACK 54 AUDIO
    TITLE "3:cjc152_0593"
    INDEX 01 01:31:53
  TRACK 55 AUDIO
    TITLE "0:"
    INDEX 01 01:34:22
  TRACK 56 AUDIO
    TITLE "3:cjc152_0594"
    INDEX 01 01:35:14
  TRACK 57 AUDIO
    TITLE "0:"
    INDEX 01 01:38:71
  TRACK 58 AUDIO
    TITLE "3:cjc152_0595"
    INDEX 01 01:40:54
  TRACK 59 AUDIO
    TITLE "0:"
    INDEX 01 01:45:26
  TRACK 60 AUDIO
    TITLE "3:cjc152_0596"
    INDEX 01 01:46:18
  TRACK 61 AUDIO
    TITLE "0:"
    INDEX 01 01:50:60
  TRACK 62 AUDIO
    TITLE "3:cjc152_0597"
    INDEX 01 01:52:42
  TRACK 63 AUDIO
    TITLE "0:"
    INDEX 01 01:54:29
  TRACK 64 AUDIO
    TITLE "3:cjc152_0598"
    INDEX 01 01:55:22
  TRACK 65 AUDIO
    TITLE "0:"
    INDEX 01 01:57:29
  TRACK 66 AUDIO
    TITLE "3:cjc152_0599"
    INDEX 01 01:59:12
  TRACK 67 AUDIO
    TITLE "0:"
    INDEX 01 02:00:53
  TRACK 68 AUDIO
    TITLE "3:cjc152_0600"
    INDEX 01 02:01:46
  TRACK 69 AUDIO
    TITLE "0:"
    INDEX 01 02:03:12
  TRACK 70 AUDIO
    TITLE "3:cjc152_0601"
    INDEX 01 02:04:72
  TRACK 71 AUDIO
    TITLE "0:"
    INDEX 01 02:07:37
  TRACK 72 AUDIO
    TITLE "3:cjc152_0602"
    INDEX 01 02:08:31
  TRACK 73 AUDIO
    TITLE "0:"
    INDEX 01 02:11:61
  TRACK 74 AUDIO
    TITLE "3:cjc152_0603"
    INDEX 01 02:13:42
  TRACK 75 AUDIO
    TITLE "0:"
    INDEX 01 02:15:17
  TRACK 76 AUDIO
    TITLE "3:cjc152_0604"
    INDEX 01 02:16:09
  TRACK 77 AUDIO
    TITLE "0:"
    INDEX 01 02:18:59
  TRACK 78 AUDIO
    TITLE "3:cjc152_0605"
    INDEX 01 02:20:60
  TRACK 79 AUDIO
    TITLE "0:"
    INDEX 01 02:23:07
  TRACK 80 AUDIO
    TITLE "3:cjc152_0606"
    INDEX 01 02:24:00
  TRACK 81 AUDIO
    TITLE "0:"
    INDEX 01 02:26:39
  TRACK 82 AUDIO
    TITLE "3:cjc152_0607"
    INDEX 01 02:28:22
  TRACK 83 AUDIO
    TITLE "0:"
    INDEX 01 02:30:29
  TRACK 84 AUDIO
    TITLE "3:cjc152_0608"
    INDEX 01 02:31:18
  TRACK 85 AUDIO
    TITLE "0:"
    INDEX 01 02:33:54
  TRACK 86 AUDIO
    TITLE "3:cjc152_0609"
    INDEX 01 02:35:39
  TRACK 87 AUDIO
    TITLE "0:"
    INDEX 01 02:37:17
  TRACK 88 AUDIO
    TITLE "3:cjc152_0610"
    INDEX 01 02:38:32
  TRACK 89 AUDIO
    TITLE "0:"
    INDEX 01 02:42:06
  TRACK 90 AUDIO
    TITLE "3:cjc152_0611"
    INDEX 01 02:43:66
  TRACK 91 AUDIO
    TITLE "0:"
    INDEX 01 02:45:67
  TRACK 92 AUDIO
    TITLE "3:cjc152_0612"
    INDEX 01 02:46:59
  TRACK 93 AUDIO
    TITLE "0:"
    INDEX 01 02:48:68
  TRACK 94 AUDIO
    TITLE "3:cjc152_0613"
    INDEX 01 02:50:45
  TRACK 95 AUDIO
    TITLE "0:"
    INDEX 01 02:52:03
  TRACK 96 AUDIO
    TITLE "3:cjc152_0614"
    INDEX 01 02:52:69
  TRACK 97 AUDIO
    TITLE "0:"
    INDEX 01 02:54:72
  TRACK 98 AUDIO
    TITLE "3:cjc152_0615"
    INDEX 01 02:56:53
  TRACK 99 AUDIO
    TITLE "0:"
    INDEX 01 02:58:41
  TRACK 100 AUDIO
    TITLE "3:cjc152_0616"
    INDEX 01 02:59:34
  TRACK 101 AUDIO
    TITLE "0:"
    INDEX 01 03:02:32
  TRACK 102 AUDIO
    TITLE "3:cjc152_0617"
    INDEX 01 03:04:16
  TRACK 103 AUDIO
    TITLE "0:"
    INDEX 01 03:06:20
  TRACK 104 AUDIO
    TITLE "3:cjc152_0618"
    INDEX 01 03:07:12
  TRACK 105 AUDIO
    TITLE "0:"
    INDEX 01 03:08:60
  TRACK 106 AUDIO
    TITLE "3:cjc152_0619"
    INDEX 01 03:10:46
  TRACK 107 AUDIO
    TITLE "0:"
    INDEX 01 03:12:23
  TRACK 108 AUDIO
    TITLE "3:cjc152_0620"
    INDEX 01 03:13:19
  TRACK 109 AUDIO
    TITLE "0:"
    INDEX 01 03:15:25
  TRACK 110 AUDIO
    TITLE "3:cjc152_0621"
    INDEX 01 03:17:09
  TRACK 111 AUDIO
    TITLE "0:"
    INDEX 01 03:19:72
  TRACK 112 AUDIO
    TITLE "3:cjc152_0622"
    INDEX 01 03:20:64
  TRACK 113 AUDIO
    TITLE "0:"
    INDEX 01 03:24:58
  TRACK 114 AUDIO
    TITLE "3:cjc152_0623"
    INDEX 01 03:26:41
  TRACK 115 AUDIO
    TITLE "0:"
    INDEX 01 03:28:59
  TRACK 116 AUDIO
    TITLE "3:cjc152_0624"
    INDEX 01 03:29:61
  TRACK 117 AUDIO
    TITLE "0:"
    INDEX 01 03:33:00
  TRACK 118 AUDIO
    TITLE "3:cjc152_0625"
    INDEX 01 03:34:62
  TRACK 119 AUDIO
    TITLE "0:"
    INDEX 01 03:36:33
  TRACK 120 AUDIO
    TITLE "3:cjc152_0626"
    INDEX 01 03:37:25
  TRACK 121 AUDIO
    TITLE "0:"
    INDEX 01 03:38:62
  TRACK 122 AUDIO
    TITLE "3:cjc152_0627"
    INDEX 01 03:40:45
  TRACK 123 AUDIO
    TITLE "0:"
    INDEX 01 03:44:11
  TRACK 124 AUDIO
    TITLE "3:cjc152_0628"
    INDEX 01 03:45:05
  TRACK 125 AUDIO
    TITLE "0:"
    INDEX 01 03:48:46
  TRACK 126 AUDIO
    TITLE "3:cjc152_0629"
    INDEX 01 03:50:30
  TRACK 127 AUDIO
    TITLE "0:"
    INDEX 01 03:52:68
  TRACK 128 AUDIO
    TITLE "3:cjc152_0630"
    INDEX 01 03:53:69
  TRACK 129 AUDIO
    TITLE "0:"
    INDEX 01 03:56:44
  TRACK 130 AUDIO
    TITLE "3:cjc152_0631"
    INDEX 01 03:58:25
  TRACK 131 AUDIO
    TITLE "0:"
    INDEX 01 03:59:54
  TRACK 132 AUDIO
    TITLE "3:cjc152_0632"
    INDEX 01 04:00:48
  TRACK 133 AUDIO
    TITLE "0:"
    INDEX 01 04:02:13
  TRACK 134 AUDIO
    TITLE "3:cjc152_0633"
    INDEX 01 04:03:73
  TRACK 135 AUDIO
    TITLE "0:"
    INDEX 01 04:06:68
  TRACK 136 AUDIO
    TITLE "3:cjc152_0634"
    INDEX 01 04:07:59
  TRACK 137 AUDIO
    TITLE "0:"
    INDEX 01 04:10:48
  TRACK 138 AUDIO
    TITLE "3:cjc152_0635"
    INDEX 01 04:12:33
  TRACK 139 AUDIO
    TITLE "0:"
    INDEX 01 04:14:48
  TRACK 140 AUDIO
    TITLE "3:cjc152_0636"
    INDEX 01 04:15:47
  TRACK 141 AUDIO
    TITLE "0:"
    INDEX 01 04:18:14
  TRACK 142 AUDIO
    TITLE "3:cjc152_0637"
    INDEX 01 04:19:72
  TRACK 143 AUDIO
    TITLE "0:"
    INDEX 01 04:21:28
  TRACK 144 AUDIO
    TITLE "3:cjc152_0638"
    INDEX 01 04:22:33
  TRACK 145 AUDIO
    TITLE "0:"
    INDEX 01 04:24:21
  TRACK 146 AUDIO
    TITLE "3:cjc152_0639"
    INDEX 01 04:26:04
  TRACK 147 AUDIO
    TITLE "0:"
    INDEX 01 04:27:40
  TRACK 148 AUDIO
    TITLE "3:cjc152_0640"
    INDEX 01 04:28:34
  TRACK 149 AUDIO
    TITLE "0:"
    INDEX 01 04:30:58
  TRACK 150 AUDIO
    TITLE "3:cjc152_0641"
    INDEX 01 04:32:44
  TRACK 151 AUDIO
    TITLE "0:"
    INDEX 01 04:33:69
  TRACK 152 AUDIO
    TITLE "3:cjc152_0642"
    INDEX 01 04:34:60
  TRACK 153 AUDIO
    TITLE "0:"
    INDEX 01 04:36:14
  TRACK 154 AUDIO
    TITLE "3:cjc152_0643"
    INDEX 01 04:38:09
  TRACK 155 AUDIO
    TITLE "0:"
    INDEX 01 04:39:50
  TRACK 156 AUDIO
    TITLE "3:cjc152_0644"
    INDEX 01 04:40:41
  TRACK 157 AUDIO
    TITLE "0:"
    INDEX 01 04:42:13
  TRACK 158 AUDIO
    TITLE "3:cjc152_0645"
    INDEX 01 04:43:71
  TRACK 159 AUDIO
    TITLE "0:"
    INDEX 01 04:45:29
  TRACK 160 AUDIO
    TITLE "3:cjc152_0646"
    INDEX 01 04:46:18
  TRACK 161 AUDIO
    TITLE "0:"
    INDEX 01 04:48:07
  TRACK 162 AUDIO
    TITLE "3:cjc152_0647"
    INDEX 01 04:49:64
  TRACK 163 AUDIO
    TITLE "0:"
    INDEX 01 04:52:38
  TRACK 164 AUDIO
    TITLE "3:cjc152_0648"
    INDEX 01 04:53:38
  TRACK 165 AUDIO
    TITLE "0:"
    INDEX 01 04:56:05
  TRACK 166 AUDIO
    TITLE "3:cjc152_0649"
    INDEX 01 04:57:63
  TRACK 167 AUDIO
    TITLE "0:"
    INDEX 01 04:59:40
  TRACK 168 AUDIO
    TITLE "3:cjc152_0650"
    INDEX 01 05:00:32
  TRACK 169 AUDIO
    TITLE "0:"
    INDEX 01 05:02:25
  TRACK 170 AUDIO
    TITLE "3:cjc152_0651"
    INDEX 01 05:04:08
  TRACK 171 AUDIO
    TITLE "0:"
    INDEX 01 05:05:72
  TRACK 172 AUDIO
    TITLE "3:cjc152_0652"
    INDEX 01 05:06:66
  TRACK 173 AUDIO
    TITLE "0:"
    INDEX 01 05:11:03
  TRACK 174 AUDIO
    TITLE "3:cjc152_0653"
    INDEX 01 05:12:61
  TRACK 175 AUDIO
    TITLE "0:"
    INDEX 01 05:14:34
  TRACK 176 AUDIO
    TITLE "3:cjc152_0654"
    INDEX 01 05:15:28
  TRACK 177 AUDIO
    TITLE "0:"
    INDEX 01 05:17:46
  TRACK 178 AUDIO
    TITLE "3:cjc152_0655"
    INDEX 01 05:19:29
  TRACK 179 AUDIO
    TITLE "0:"
    INDEX 01 05:21:15
  TRACK 180 AUDIO
    TITLE "3:cjc152_0656"
    INDEX 01 05:22:06
  TRACK 181 AUDIO
    TITLE "0:"
    INDEX 01 05:24:01
